<?xml version="1.0" encoding="UTF-8"?>
<svg id="Layer_1" xmlns="http://www.w3.org/2000/svg" viewBox="0 0 684.44 137.81">
  <defs>
    <style>
      .cls-1 {
        fill: none;
      }

      .cls-2 {
        fill: #f9bc15;
      }

      .cls-3 {
        fill: #4c88c8;
      }

      .cls-4 {
        fill: #33a852;
      }

      .cls-5 {
        fill: #ea4435;
      }

      .cls-6 {
        fill: #4c88c7;
      }
    </style>
  </defs>
  <path class="cls-5" d="M656.36,119.85c-5.9,2.47-11.65,2.71-17.26.72-5.6-1.99-9.91-5.94-12.92-11.83l58.26-24.38c-.6-2.46-1.49-5.12-2.69-7.98-3.09-7.38-7.39-13.26-12.9-17.62-5.51-4.36-11.74-6.93-18.68-7.71-6.94-.78-14,.34-21.2,3.35-7.47,3.13-13.41,7.51-17.82,13.15-4.42,5.64-6.97,12.1-7.66,19.38-.7,7.28.6,14.85,3.88,22.69,3.28,7.84,7.81,14.05,13.57,18.63,5.77,4.58,12.22,7.3,19.35,8.16,7.14.86,14.35-.23,21.63-3.28,8.95-3.74,15.51-9.12,19.68-16.13.77-1.29,1.45-2.59,2.05-3.91l-14.76-5.92c-1.81,5.71-5.99,9.95-12.53,12.68ZM622.03,79.01c2.43-5.08,6.37-8.76,11.81-11.04,5.99-2.51,11.76-2.86,17.28-1.05,5.53,1.8,9.55,5.59,12.08,11.37l-42.2,17.66c-1.74-6.21-1.39-11.86,1.03-16.94Z"/>
  <g>
    <path class="cls-1" d="M110.7,62.21c-2.7-5.2-6.45-9.12-11.25-11.78-4.8-2.65-10.35-3.97-16.65-3.97-6.9,0-13.05,1.55-18.45,4.65-5.4,3.1-9.63,7.5-12.68,13.2-3.05,5.7-4.57,12.3-4.57,19.8s1.52,14.13,4.57,19.88c3.05,5.75,7.28,10.18,12.68,13.28,5.4,3.1,11.55,4.65,18.45,4.65,9.3,0,16.85-2.6,22.65-7.8,5.8-5.2,9.35-12.25,10.65-21.15h-39.15v-13.65h57.45v13.35c-1.1,8.1-3.98,15.55-8.62,22.35-4.65,6.8-10.7,12.22-18.15,16.28-7.45,4.05-15.73,6.07-24.83,6.07-9.8,0-18.75-2.27-26.85-6.82-8.1-4.55-14.53-10.88-19.28-18.98-4.75-8.1-7.12-17.25-7.12-27.45s2.37-19.35,7.12-27.45c4.75-8.1,11.2-14.42,19.35-18.98,8.15-4.55,17.07-6.83,26.77-6.83,11.1,0,20.97,2.73,29.62,8.18,8.65,5.45,14.93,13.18,18.83,23.17h-20.55Z"/>
    <path class="cls-3" d="M218.55,53.81v82.65h-17.1v-9.75c-2.7,3.4-6.23,6.08-10.58,8.02-4.35,1.95-8.98,2.93-13.88,2.93-6.5,0-12.33-1.35-17.47-4.05-5.15-2.7-9.2-6.7-12.15-12-2.95-5.3-4.42-11.7-4.42-19.2v-48.6h16.95v46.05c0,7.4,1.85,13.08,5.55,17.03,3.7,3.95,8.75,5.92,15.15,5.92s11.48-1.97,15.23-5.92c3.75-3.95,5.62-9.62,5.62-17.03v-46.05h17.1Z"/>
    <path class="cls-5" d="M233.02,72.63c3.45-6.45,8.22-11.42,14.32-14.92,6.1-3.5,13.1-5.25,21-5.25,10,0,18.27,2.38,24.83,7.12,6.55,4.75,10.97,11.53,13.27,20.33h-18.45c-1.5-4.1-3.9-7.3-7.2-9.6-3.3-2.3-7.45-3.45-12.45-3.45-7,0-12.58,2.48-16.72,7.43-4.15,4.95-6.23,11.88-6.23,20.77s2.07,15.85,6.23,20.85c4.15,5,9.72,7.5,16.72,7.5,9.9,0,16.45-4.35,19.65-13.05h18.45c-2.4,8.4-6.9,15.08-13.5,20.03s-14.8,7.42-24.6,7.42c-7.9,0-14.9-1.77-21-5.33-6.1-3.55-10.88-8.55-14.32-15-3.45-6.45-5.18-13.92-5.18-22.42s1.73-15.97,5.18-22.42Z"/>
    <path class="cls-2" d="M315.52,72.63c3.45-6.45,8.22-11.42,14.32-14.92,6.1-3.5,13.1-5.25,21-5.25,10,0,18.27,2.38,24.83,7.12,6.55,4.75,10.97,11.53,13.27,20.33h-18.45c-1.5-4.1-3.9-7.3-7.2-9.6-3.3-2.3-7.45-3.45-12.45-3.45-7,0-12.58,2.48-16.72,7.43-4.15,4.95-6.23,11.88-6.23,20.77s2.07,15.85,6.23,20.85c4.15,5,9.72,7.5,16.72,7.5,9.9,0,16.45-4.35,19.65-13.05h18.45c-2.4,8.4-6.9,15.08-13.5,20.03s-14.8,7.42-24.6,7.42c-7.9,0-14.9-1.77-21-5.33-6.1-3.55-10.88-8.55-14.32-15-3.45-6.45-5.18-13.92-5.18-22.42s1.73-15.97,5.18-22.42Z"/>
    <path class="cls-6" d="M399.44,39.71c-2.1-2.1-3.15-4.7-3.15-7.8s1.05-5.7,3.15-7.8c2.1-2.1,4.7-3.15,7.8-3.15s5.55,1.05,7.65,3.15c2.1,2.1,3.15,4.7,3.15,7.8s-1.05,5.7-3.15,7.8c-2.1,2.1-4.65,3.15-7.65,3.15s-5.7-1.05-7.8-3.15ZM415.64,53.81v82.65h-17.1V53.81h17.1Z"/>
    <path class="cls-4" d="M445.34,132.48c-6.3-3.55-11.25-8.55-14.85-15-3.6-6.45-5.4-13.92-5.4-22.42s1.85-15.85,5.55-22.35c3.7-6.5,8.75-11.5,15.15-15,6.4-3.5,13.55-5.25,21.45-5.25s15.05,1.75,21.45,5.25c6.4,3.5,11.45,8.5,15.15,15,3.7,6.5,5.55,13.95,5.55,22.35s-1.9,15.85-5.7,22.35c-3.8,6.5-8.98,11.53-15.52,15.07-6.55,3.55-13.78,5.33-21.68,5.33s-14.85-1.77-21.15-5.33ZM478.87,119.81c3.85-2.1,6.97-5.25,9.38-9.45,2.4-4.2,3.6-9.3,3.6-15.3s-1.15-11.07-3.45-15.22c-2.3-4.15-5.35-7.28-9.15-9.38-3.8-2.1-7.9-3.15-12.3-3.15s-8.47,1.05-12.22,3.15c-3.75,2.1-6.73,5.23-8.93,9.38-2.2,4.15-3.3,9.22-3.3,15.22,0,8.9,2.27,15.78,6.82,20.62,4.55,4.85,10.28,7.28,17.18,7.28,4.4,0,8.52-1.05,12.38-3.15Z"/>
    <path class="cls-6" d="M578.02,56.51c5.15,2.7,9.17,6.7,12.08,12,2.9,5.3,4.35,11.7,4.35,19.2v48.75h-16.95v-46.2c0-7.4-1.85-13.07-5.55-17.03-3.7-3.95-8.75-5.92-15.15-5.92s-11.48,1.98-15.23,5.92c-3.75,3.95-5.62,9.63-5.62,17.03v46.2h-17.1V53.81h17.1v9.45c2.8-3.4,6.38-6.05,10.73-7.95,4.35-1.9,8.97-2.85,13.88-2.85,6.5,0,12.32,1.35,17.47,4.05Z"/>
  </g>
  <path class="cls-3" d="M60.76,62.7v17.5h50.18c-1.67,11.41-6.22,20.44-13.65,27.11-7.43,6.67-17.11,10-29.03,10-8.84,0-16.73-1.99-23.65-5.96-6.92-3.97-12.33-9.65-16.24-17.02s-5.87-15.86-5.87-25.47,1.96-18.07,5.87-25.38c3.91-7.31,9.32-12.95,16.24-16.92,6.92-3.97,14.8-5.96,23.65-5.96,8.08,0,15.19,1.7,21.34,5.09,2.74,1.51,5.22,3.35,7.42,5.51l19.07-12.37c-2.96-2.9-6.24-5.49-9.86-7.75C95.15,4.09,82.48.6,68.26.6c-12.43,0-23.87,2.91-34.31,8.74-10.45,5.83-18.71,13.95-24.8,24.33S0,55.78,0,68.86s3.05,24.8,9.14,35.19c6.09,10.38,14.32,18.48,24.7,24.32,10.38,5.85,21.85,8.75,34.42,8.75,11.66,0,22.28-2.6,31.83-7.79s17.3-12.14,23.26-20.85c5.96-8.72,9.64-18.27,11.05-28.65v-17.11H60.76Z"/>
</svg>